<svg xmlns="http://www.w3.org/2000/svg" viewBox="0 0 297.08 1.41"><defs><style>.cls-1{fill:#fff;}</style></defs><g id="Calque_2" data-name="Calque 2"><g id="decor"><polygon class="cls-1" points="0 0.71 2.83 0.68 2.83 0.73 0 0.71"/><polygon class="cls-1" points="5.67 0.65 8.5 0.63 8.5 0.79 5.67 0.76 5.67 0.65"/><polygon class="cls-1" points="11.34 0.6 14.17 0.57 14.17 0.84 11.34 0.81 11.34 0.6"/><polygon class="cls-1" points="17.01 0.55 19.84 0.52 19.84 0.89 17.01 0.86 17.01 0.55"/><polygon class="cls-1" points="22.68 0.5 25.51 0.47 25.51 0.94 22.68 0.92 22.68 0.5"/><polygon class="cls-1" points="28.35 0.44 31.18 0.42 31.18 1 28.35 0.97 28.35 0.44"/><polygon class="cls-1" points="34.02 0.39 36.85 0.36 36.85 1.05 34.02 1.02 34.02 0.39"/><polygon class="cls-1" points="39.69 0.34 42.52 0.33 42.52 1.08 39.69 1.07 39.69 0.34"/><polygon class="cls-1" points="45.35 0.32 48.19 0.3 48.19 1.11 45.35 1.1 45.35 0.32"/><polygon class="cls-1" points="51.02 0.28 53.86 0.27 53.86 1.14 51.02 1.13 51.02 0.28"/><polygon class="cls-1" points="56.69 0.26 59.53 0.24 59.53 1.17 56.69 1.16 56.69 0.26"/><polygon class="cls-1" points="62.36 0.23 65.2 0.21 65.2 1.2 62.36 1.19 62.36 0.23"/><polygon class="cls-1" points="68.03 0.2 70.87 0.18 70.87 1.23 68.03 1.22 68.03 0.2"/><polygon class="cls-1" points="73.7 0.17 76.53 0.15 76.53 1.26 73.7 1.25 73.7 0.17"/><polygon class="cls-1" points="79.37 0.14 82.2 0.12 82.2 1.29 79.37 1.28 79.37 0.14"/><polygon class="cls-1" points="85.04 0.11 87.87 0.1 87.87 1.31 85.04 1.3 85.04 0.11"/><polygon class="cls-1" points="90.71 0.1 93.54 0.09 93.54 1.32 90.71 1.31 90.71 0.1"/><polygon class="cls-1" points="96.38 0.09 99.21 0.08 99.21 1.33 96.38 1.32 96.38 0.09"/><polygon class="cls-1" points="102.05 0.08 104.88 0.07 104.88 1.34 102.05 1.33 102.05 0.08"/><polygon class="cls-1" points="107.72 0.07 110.55 0.06 110.55 1.35 107.72 1.34 107.72 0.07"/><polygon class="cls-1" points="113.39 0.06 116.22 0.06 116.22 1.36 113.39 1.35 113.39 0.06"/><polygon class="cls-1" points="119.06 0.05 121.89 0.04 121.89 1.37 119.06 1.36 119.06 0.05"/><polygon class="cls-1" points="124.72 0.04 127.56 0.04 127.56 1.38 124.72 1.37 124.72 0.04"/><polygon class="cls-1" points="130.39 0.03 133.23 0.03 133.23 1.39 130.39 1.38 130.39 0.03"/><polygon class="cls-1" points="136.06 0.02 138.9 0.01 138.9 1.4 136.06 1.39 136.06 0.02"/><polygon class="cls-1" points="141.73 0.01 144.57 0.01 144.57 1.41 141.73 1.4 141.73 0.01"/><rect class="cls-1" x="147.4" width="2.83" height="1.41"/><polygon class="cls-1" points="153.07 0.01 155.91 0.01 155.91 1.4 153.07 1.41 153.07 0.01"/><polygon class="cls-1" points="158.74 0.01 161.57 0.02 161.57 1.39 158.74 1.4 158.74 0.01"/><polygon class="cls-1" points="164.41 0.03 167.24 0.03 167.24 1.38 164.41 1.39 164.41 0.03"/><polygon class="cls-1" points="170.08 0.03 172.91 0.04 172.91 1.37 170.08 1.38 170.08 0.03"/><polygon class="cls-1" points="175.75 0.04 178.58 0.05 178.58 1.36 175.75 1.37 175.75 0.04"/><polygon class="cls-1" points="181.42 0.05 184.25 0.06 184.25 1.35 181.42 1.36 181.42 0.05"/><polygon class="cls-1" points="187.09 0.06 189.92 0.07 189.92 1.34 187.09 1.35 187.09 0.06"/><polygon class="cls-1" points="192.76 0.07 195.59 0.08 195.59 1.33 192.76 1.34 192.76 0.07"/><polygon class="cls-1" points="198.43 0.08 201.26 0.09 201.26 1.32 198.43 1.33 198.43 0.08"/><polygon class="cls-1" points="204.09 0.09 206.93 0.1 206.93 1.31 204.09 1.32 204.09 0.09"/><polygon class="cls-1" points="209.76 0.1 212.6 0.11 212.6 1.3 209.76 1.31 209.76 0.1"/><polygon class="cls-1" points="215.43 0.12 218.27 0.14 218.27 1.28 215.43 1.29 215.43 0.12"/><polygon class="cls-1" points="221.1 0.15 223.94 0.17 223.94 1.25 221.1 1.26 221.1 0.15"/><polygon class="cls-1" points="226.77 0.18 229.61 0.2 229.61 1.22 226.77 1.23 226.77 0.18"/><polygon class="cls-1" points="232.44 0.21 235.28 0.23 235.28 1.19 232.44 1.2 232.44 0.21"/><polygon class="cls-1" points="238.11 0.24 240.94 0.26 240.94 1.16 238.11 1.17 238.11 0.24"/><polygon class="cls-1" points="243.78 0.27 246.61 0.29 246.61 1.13 243.78 1.14 243.78 0.27"/><polygon class="cls-1" points="249.45 0.3 252.28 0.32 252.28 1.1 249.45 1.11 249.45 0.3"/><polygon class="cls-1" points="255.12 0.33 257.95 0.35 257.95 1.07 255.12 1.08 255.12 0.33"/><polygon class="cls-1" points="260.79 0.37 263.62 0.39 263.62 1.02 260.79 1.05 260.79 0.37"/><polygon class="cls-1" points="266.46 0.42 269.29 0.45 269.29 0.97 266.46 0.99 266.46 0.42"/><polygon class="cls-1" points="272.13 0.47 274.96 0.5 274.96 0.91 272.13 0.94 272.13 0.47"/><polygon class="cls-1" points="277.8 0.53 280.63 0.55 280.63 0.86 277.8 0.89 277.8 0.53"/><polygon class="cls-1" points="283.46 0.58 286.3 0.61 286.3 0.81 283.46 0.83 283.46 0.58"/><polygon class="cls-1" points="289.13 0.63 291.97 0.66 291.97 0.75 289.13 0.78 289.13 0.63"/><polygon class="cls-1" points="294.8 0.69 297.08 0.71 294.8 0.73 294.8 0.69"/></g></g></svg>